<?xml version="1.0"?>
<svg xmlns="http://www.w3.org/2000/svg" height="512px" viewBox="0 0 512 512" width="512px"><g><path d="m508.136719 341.949219c-23.578125-26.121094-57.125-41.953125-94.464844-44.578125-37.242187-2.617188-73.054687 8.273437-100.84375 30.667968l-11.121094 8.960938h-56.707031c-16.714844 0-31.320312 9.167969-39.078125 22.730469l-62.042969-34.707031c-11.402344-6.378907-24.570312-7.8125-37.078125-4.039063-12.507812 3.777344-22.683593 12.257813-28.648437 23.878906-11.773438 22.929688-3.386719 50.769531 19.085937 63.386719l167.738281 94.148438c11.1875 6.28125 23.882813 9.601562 36.710938 9.601562h195.3125c8.285156 0 15-6.71875 15-15v-143c0-.320312-.027344-.632812-.046875-.949219.273437-3.921875-.972656-7.949219-3.816406-11.101562zm-206.449219 140.050781c-7.699219 0-15.3125-1.992188-22.027344-5.757812l-167.734375-94.152344c-8.339843-4.679688-11.453125-15.015625-7.085937-23.523438 2.214844-4.3125 5.992187-7.457031 10.632812-8.859375 4.640625-1.402343 9.527344-.871093 13.757813 1.496094l71.753906 40.144531c4.3125 20.339844 22.40625 35.652344 44.015625 35.652344h106c8.285156 0 15-6.714844 15-15s-6.714844-15-15-15h-106c-8.269531 0-15-6.730469-15-15s6.730469-15 15-15h62c3.425781 0 6.746094-1.171875 9.410156-3.320312l15.242188-12.28125c21.871094-17.625 50.253906-26.183594 79.914062-24.097657 27.546875 1.933594 52.335938 12.789063 70.433594 30.710938v123.988281zm0 0" data-original="#000000" class="active-path" data-old_color="#000000" fill="#33658A"/><path d="m256 250c74.300781 0 133.019531-5.984375 174.515625-17.789062 24.976563-7.105469 43.703125-16.148438 57.25-27.644532 16.082031-13.644531 24.234375-30.320312 24.234375-49.566406 0-35.511719-29.011719-74.945312-77.605469-105.480469-50.816406-31.933593-114.171875-49.519531-178.394531-49.519531s-127.578125 17.585938-178.394531 49.519531c-48.59375 30.535157-77.605469 69.96875-77.605469 105.480469 0 19.246094 8.152344 35.921875 24.234375 49.566406 13.546875 11.496094 32.273437 20.539063 57.25 27.644532 41.496094 11.804687 100.214844 17.789062 174.515625 17.789062zm-226-95c0-24.757812 24.359375-55.441406 63.566406-80.082031 14.5625-9.148438 30.542969-17.039063 47.433594-23.550781v53.632812c0 8.285156 6.714844 15 15 15s15-6.714844 15-15v-63.476562c22.660156-6.199219 46.335938-10.007813 70-11.152344v74.628906c0 8.285156 6.714844 15 15 15s15-6.714844 15-15v-74.628906c23.664062 1.144531 47.339844 4.953125 70 11.152344v63.476562c0 8.285156 6.714844 15 15 15s15-6.714844 15-15v-53.632812c16.890625 6.511718 32.871094 14.402343 47.433594 23.550781 39.207031 24.640625 63.566406 55.324219 63.566406 80.082031 0 10.3125-4.335938 18.792969-13.644531 26.691406-10.074219 8.546875-25.566407 15.835938-46.046875 21.664063-38.828125 11.042969-94.785156 16.644531-166.308594 16.644531s-127.480469-5.601562-166.308594-16.644531c-20.480468-5.828125-35.972656-13.117188-46.046875-21.664063-9.308593-7.898437-13.644531-16.378906-13.644531-26.691406zm0 0" data-original="#000000" class="active-path" data-old_color="#000000" fill="#33658A"/></g> </svg>
