<?xml version="1.0"?>
<svg xmlns="http://www.w3.org/2000/svg" id="Capa_1" enable-background="new 0 0 512 512" height="512px" viewBox="0 0 512 512" width="512px"><g><path d="m475.333 33.853h-438.665c-20.219 0-36.668 16.449-36.668 36.667v98.856c0 24.135 19.636 43.771 43.771 43.771h62.007l127.281 118.349-129.773 120.666c-6.066 5.641-6.412 15.132-.771 21.199 2.955 3.178 6.966 4.786 10.988 4.786 3.656 0 7.322-1.329 10.211-4.015l131.373-122.154 131.373 122.154c2.889 2.687 6.554 4.015 10.211 4.015 4.022 0 8.034-1.608 10.988-4.786 5.641-6.067 5.296-15.558-.771-21.199l-129.772-120.666 127.281-118.349h63.832c24.136 0 43.771-19.636 43.771-43.771v-98.856c0-20.218-16.449-36.667-36.667-36.667zm-32.19 30h32.189c3.676 0 6.667 2.991 6.667 6.667v32.189h-38.857v-38.856zm-68.857 0h38.857v38.857h-38.857zm-68.857 0h38.857v38.857h-38.857zm-68.857 0h38.857v38.857h-38.857zm-68.858 0h38.857v38.857h-38.857zm-68.857 0h38.857v38.857h-38.857zm-68.857 6.667c0-3.676 2.991-6.667 6.668-6.667h32.189v38.857h-38.857zm178.29 196.98h93.594l-46.797 43.513zm125.859-30h-158.123l-26.191-24.353h210.505zm147.851-68.124c0 7.593-6.178 13.771-13.771 13.771h-424.458c-7.594 0-13.771-6.178-13.771-13.771v-36.666h452z" data-original="#000000" class="active-path" data-old_color="#000000" fill="#33658A"/></g> </svg>
