<?xml version="1.0"?>
<svg xmlns="http://www.w3.org/2000/svg" xmlns:xlink="http://www.w3.org/1999/xlink" version="1.1" id="Capa_1" x="0px" y="0px" viewBox="0 0 512 512" style="enable-background:new 0 0 512 512;" xml:space="preserve" width="512px" height="512px" class=""><g><circle style="fill:#407BA6" cx="256" cy="256" r="256" data-original="#6E64C3" class="active-path" data-old_color="#6E64C3"/><path style="fill:#33658A" d="M405.21,129.405l-70.646-28.547l-124.44,120.581l-75.183-57.035l-28.518,14.259l0.366,150.674  l180.73,180.73C414.032,494.532,512,386.712,512,256c0-6.947-0.287-13.827-0.83-20.635L405.21,129.405z" data-original="#5046AF" class="" data-old_color="#5046AF"/><path style="fill:#FFFFFF" d="M405.21,129.405l-70.646-28.547l-124.44,120.581l-75.183-57.035l-28.518,14.259l0.366,150.674  l28.518,14.259l75.183-57.035l124.44,120.581l70.646-28.547L405.21,129.405z M142.437,285.913v-63.825L177.718,254h0.366  L142.437,285.913z M327.477,307.139L256.549,254h-0.366l71.294-53.139L327.477,307.139L327.477,307.139z" data-original="#FFFFFF" class="" data-old_color="#FFFFFF"/></g> </svg>
